<?xml version="1.0" encoding="UTF-8" standalone="no"?>
<svg
   xmlns:dc="http://purl.org/dc/elements/1.1/"
   xmlns:cc="http://creativecommons.org/ns#"
   xmlns:rdf="http://www.w3.org/1999/02/22-rdf-syntax-ns#"
   xmlns:svg="http://www.w3.org/2000/svg"
   xmlns="http://www.w3.org/2000/svg"
   xmlns:sodipodi="http://sodipodi.sourceforge.net/DTD/sodipodi-0.dtd"
   xmlns:inkscape="http://www.inkscape.org/namespaces/inkscape"
   height="77"
   width="229"
   version="1.1"
   viewBox="0 0 229 77"
   fill="none"
   stroke="none"
   stroke-linecap="square"
   stroke-miterlimit="10"
   id="svg14"
   sodipodi:docname="logo.svg"
   inkscape:version="1.0 (4035a4f, 2020-05-01)">
  <metadata
     id="metadata20">
    <rdf:RDF>
      <cc:Work
         rdf:about="">
        <dc:format>image/svg+xml</dc:format>
        <dc:type
           rdf:resource="http://purl.org/dc/dcmitype/StillImage" />
        <dc:title></dc:title>
      </cc:Work>
    </rdf:RDF>
  </metadata>
  <defs
     id="defs18" />
  <sodipodi:namedview
     inkscape:document-rotation="0"
     pagecolor="#ffffff"
     bordercolor="#666666"
     borderopacity="1"
     objecttolerance="10"
     gridtolerance="10"
     guidetolerance="10"
     inkscape:pageopacity="0"
     inkscape:pageshadow="2"
     inkscape:window-width="1591"
     inkscape:window-height="1120"
     id="namedview16"
     showgrid="false"
     inkscape:zoom="3.210084"
     inkscape:cx="108.40838"
     inkscape:cy="47.196335"
     inkscape:window-x="421"
     inkscape:window-y="184"
     inkscape:window-maximized="0"
     inkscape:current-layer="svg14" />
  <g
     clip-path="url(#p.0)"
     id="g12"
     transform="translate(-7.186775,-18.398544)">
    <path
       fill="#9504af"
       d="m 11.796875,94.179794 q -1.671875,0 -2.390625,-0.609375 Q 8.6875,92.976669 8.6875,91.367294 V 40.820419 q 2.390625,-1.53125 5.421875,-2.359375 3.046875,-0.84375 6.25,-0.84375 4,0 6.921875,1.40625 2.921875,1.390625 4.515625,5.03125 1.609375,3.640625 1.609375,10.203125 0,6.390625 -0.734375,10.84375 -0.71875,4.4375 -1.921875,7.234375 -1.1875,2.796875 -2.75,4.28125 -1.5625,1.484375 -3.203125,2.03125 -1.640625,0.5625 -3.3125,0.5625 -2.171875,0 -3.8125,-0.640625 -1.625,-0.640625 -2.515625,-1.59375 v 16.640625 q -0.796875,0.234375 -1.6875,0.390625 -0.875,0.171875 -1.671875,0.171875 z m 7.6875,-20.8125 q 0.953125,0 2.078125,-0.546875 1.125,-0.5625 2.203125,-2.40625 1.078125,-1.84375 1.75,-5.515625 0.6875,-3.6875 0.6875,-9.921875 0,-4.796875 -0.6875,-7.3125 -0.671875,-2.53125 -2.03125,-3.453125 -1.359375,-0.921875 -3.4375,-0.921875 -2.734375,0 -4.890625,1.53125 v 25.90625 q 0.890625,1.453125 2,2.046875 1.125,0.59375 2.328125,0.59375 z m 31.591217,5.84375 q -4.796875,0 -7.359375,-1.4375 -2.5625,-1.4375 -3.5625,-4.390625 -1,-2.96875 -1,-7.453125 V 39.695419 q 0,-0.640625 0.234375,-0.875 0.25,-0.25 1.640625,-0.328125 1.40625,-0.07813 4.765625,-0.07813 v 28.078125 q 0,2.5625 0.4375,4.125 0.453125,1.5625 1.609375,2.25 1.15625,0.671875 3.3125,0.671875 1.125,0 2.640625,-0.3125 1.53125,-0.328125 2.8125,-1.125 v -32.40625 q 0,-0.640625 0.265625,-0.875 0.28125,-0.25 1.59375,-0.328125 1.328125,-0.07813 4.609375,-0.07813 v 37.921875 q -2.3125,1.28125 -5.515625,2.078125 -3.203125,0.796875 -6.484375,0.796875 z m 19.19809,-0.796875 V 41.211044 q 2.328125,-1.671875 5.125,-2.625 2.796875,-0.96875 5.765625,-0.96875 3.109375,0 4.34375,0.84375 1.25,0.828125 1.25,2.515625 0,0.640625 -0.15625,1.71875 -0.15625,1.078125 -0.5625,2.125 -0.875,-0.484375 -1.84375,-0.71875 -0.953125,-0.25 -2,-0.25 -1.359375,0 -2.765625,0.4375 -1.390625,0.4375 -2.515625,1.328125 l -0.07813,31.515625 q 0,0.640625 -0.28125,0.890625 -0.28125,0.234375 -1.640625,0.3125 -1.359375,0.07813 -4.640625,0.07813 z m 24.243103,15.765625 q -1.671875,0 -2.390625,-0.609375 -0.71875,-0.59375 -0.71875,-2.203125 V 40.820419 q 2.390625,-1.53125 5.421875,-2.359375 3.046875,-0.84375 6.250005,-0.84375 4,0 6.92187,1.40625 2.92188,1.390625 4.51563,5.03125 1.60937,3.640625 1.60937,10.203125 0,6.390625 -0.73437,10.84375 -0.71875,4.4375 -1.92188,7.234375 -1.1875,2.796875 -2.75,4.28125 -1.5625,1.484375 -3.20312,2.03125 -1.64063,0.5625 -3.3125,0.5625 -2.17188,0 -3.8125,-0.640625 -1.625005,-0.640625 -2.51563,-1.59375 v 16.640625 q -0.796875,0.234375 -1.6875,0.390625 -0.875,0.171875 -1.671875,0.171875 z m 7.687505,-20.8125 q 0.95312,0 2.07812,-0.546875 1.125,-0.5625 2.20313,-2.40625 1.07812,-1.84375 1.75,-5.515625 0.6875,-3.6875 0.6875,-9.921875 0,-4.796875 -0.6875,-7.3125 -0.67188,-2.53125 -2.03125,-3.453125 -1.35938,-0.921875 -3.4375,-0.921875 -2.73438,0 -4.89063,1.53125 v 25.90625 q 0.890625,1.453125 2,2.046875 1.125,0.59375 2.32813,0.59375 z m 19.76309,5.046875 v -55.84375 q 0,-1.515625 0.51562,-2.109375 0.51563,-0.609375 1.95313,-0.71875 1.4375,-0.125 4,-0.125 v 57.515625 q 0,0.640625 -0.28125,0.890625 -0.28125,0.234375 -1.60938,0.3125 -1.3125,0.07813 -4.57812,0.07813 z m 22.30873,0.796875 q -4.23438,0 -7,-1 -2.75,-1 -2.75,-3.078125 0,-0.71875 0.23437,-1.71875 0.23438,-1 0.875,-2.046875 1.76563,1.046875 3.71875,1.53125 1.96875,0.46875 4.28125,0.46875 3.04688,0 4.76563,-1.234375 1.71875,-1.234375 1.71875,-3.71875 0,-1.59375 -0.6875,-3.109375 -0.67188,-1.53125 -2.51563,-3.125 l -7.75,-6.640625 q -2.73437,-2.25 -3.65625,-4.359375 -0.90625,-2.125 -0.90625,-4.125 0,-2.796875 1.39063,-4.921875 1.40625,-2.125 4.32812,-3.3125 2.92188,-1.203125 7.3125,-1.203125 4.17188,0 6.28125,0.796875 2.125,0.796875 2.95313,1.796875 0.84375,1 0.84375,1.890625 0,1.671875 -1.4375,3.265625 -1.75,-1.109375 -3.67188,-1.59375 -1.92187,-0.484375 -4.17187,-0.484375 -2.875,0 -4.59375,1 -1.71875,1 -1.71875,2.84375 0,1.046875 0.59375,2.171875 0.60937,1.109375 2.60937,2.796875 l 7.4375,6 q 2.64063,2.46875 3.67188,4.71875 1.04687,2.234375 1.04687,5.28125 0,5.265625 -3.53125,8.1875 -3.51562,2.921875 -9.67187,2.921875 z m 19.03747,-0.796875 v -55.84375 q 0,-1.515625 0.51563,-2.109375 0.53125,-0.609375 1.92187,-0.71875 1.40625,-0.125 4.04688,-0.125 v 21.109375 q 1.84375,-1.59375 4.28125,-2.34375 2.4375,-0.765625 4.6875,-0.765625 3.4375,0 5.23437,1.25 1.79688,1.234375 2.4375,3.546875 0.64063,2.3125 0.64063,5.765625 v 28.953125 q 0,0.640625 -0.35938,0.890625 -0.35937,0.234375 -1.76562,0.3125 -1.39063,0.07813 -4.51563,0.07813 v -28.48438 q 0,-2.640625 -0.84375,-4.46875 -0.82812,-1.84375 -3.79687,-1.84375 -1.35938,0 -2.96875,0.484375 -1.59375,0.46875 -3.03125,1.75 v 31.28125 q 0,0.640625 -0.28125,0.890625 -0.28125,0.234375 -1.64063,0.3125 -1.35937,0.07813 -4.5625,0.07813 z m 32.65374,0 V 41.367294 q 0,-1.515625 0.54687,-2.109375 0.5625,-0.609375 2,-0.71875 1.45313,-0.125 4.07813,-0.125 v 38.71875 q 0,0.640625 -0.28125,0.890625 -0.26563,0.234375 -1.625,0.3125 -1.35938,0.07813 -4.71875,0.07813 z m 2.875,-45.515625 q -1.51563,-0.07813 -2.40625,-1.15625 -0.875,-1.09375 -0.875,-3.890625 0.0781,-2.15625 0.95312,-3.46875 0.89063,-1.328125 2.8125,-1.328125 1.82813,0 2.54688,1.046875 0.71875,1.03125 0.64062,3.59375 0,2.40625 -0.92187,3.8125 -0.90625,1.390625 -2.75,1.390625 z m 14.23436,61.28125 q -1.67188,0 -2.39063,-0.609375 -0.71875,-0.59375 -0.71875,-2.203125 V 40.820419 q 2.39063,-1.53125 5.42188,-2.359375 3.04687,-0.84375 6.25,-0.84375 4,0 6.92187,1.40625 2.92188,1.390625 4.51563,5.03125 1.60937,3.640625 1.60937,10.203125 0,6.390625 -0.73437,10.84375 -0.71875,4.4375 -1.92188,7.234375 -1.1875,2.796875 -2.75,4.28125 -1.5625,1.484375 -3.20312,2.03125 -1.64063,0.5625 -3.3125,0.5625 -2.17188,0 -3.8125,-0.640625 -1.625,-0.640625 -2.51563,-1.59375 v 16.640625 q -0.79687,0.234375 -1.6875,0.390625 -0.875,0.171875 -1.67187,0.171875 z m 7.6875,-20.8125 q 0.95312,0 2.07812,-0.546875 1.125,-0.5625 2.20313,-2.40625 1.07812,-1.84375 1.75,-5.515625 0.6875,-3.6875 0.6875,-9.921875 0,-4.796875 -0.6875,-7.3125 -0.67188,-2.53125 -2.03125,-3.453125 -1.35938,-0.921875 -3.4375,-0.921875 -2.73438,0 -4.89063,1.53125 v 25.90625 q 0.89063,1.453125 2,2.046875 1.125,0.59375 2.32813,0.59375 z"
       fill-rule="nonzero"
       id="path10" />
  </g>
</svg>
