<svg width="50" version="1.1" viewBox="0.0 0.0 76.8005249343832 76.8005249343832" fill="none" stroke="none" stroke-linecap="square" stroke-miterlimit="10"
    xmlns:xlink="http://www.w3.org/1999/xlink"
    xmlns="http://www.w3.org/2000/svg">
    <g>
        <path fill="#9504af" d="m22.657011 59.646404l0 -43.90625l16.562502 0q4.359375 0 6.671875 0.42187405q3.234375 0.546875 5.421875 2.0625q2.1875 1.5 3.515625 4.234375q1.328125 2.71875 1.328125 5.984375q0 5.593752 -3.5625 9.484377q-3.5625 3.875 -12.875 3.875l-11.250002 0l0 17.84375l-5.8125 0zm5.8125 -23.03125l11.343752 0q5.625 0 7.984375 -2.09375q2.375 -2.09375 2.375 -5.890627q0 -2.765625 -1.390625 -4.71875q-1.390625 -1.96875 -3.671875 -2.59375q-1.46875 -0.390625 -5.421875 -0.390625l-11.218752 0l0 15.687502z" fill-rule="nonzero"/>
    </g>
</svg>