<svg xmlns:xlink="http://www.w3.org/1999/xlink"
    xmlns="http://www.w3.org/2000/svg" version="1.1" viewBox="0.0 0.0 76.8005249343832 76.8005249343832" fill="none" stroke="none" stroke-linecap="square" stroke-miterlimit="10">
    <g>
        <defs>
            <linearGradient id="p.1" gradientUnits="userSpaceOnUse" gradientTransform="matrix(10.420833883842647 0.0 0.0 10.420833883842647 0.0 0.0)" spreadMethod="pad" x1="-3.684320368478934" y1="3.687255218006067" x2="3.687255218006067" y2="11.052963073153549">
                <stop offset="0.0" stop-color="#9504af"/>
                <stop offset="0.05882353" stop-color="#9504b0" stop-opacity="0.94509804"/>
                <stop offset="0.11764706" stop-color="#9604b0" stop-opacity="0.89411765"/>
                <stop offset="0.1764706" stop-color="#9706b1" stop-opacity="0.84313726"/>
                <stop offset="0.23529412" stop-color="#9806b2" stop-opacity="0.7882353"/>
                <stop offset="0.29411766" stop-color="#9808b3" stop-opacity="0.7372549"/>
                <stop offset="0.3529412" stop-color="#9909b3" stop-opacity="0.6862745"/>
                <stop offset="0.4117647" stop-color="#9b0bb5" stop-opacity="0.6313726"/>
                <stop offset="0.47058824" stop-color="#9d0cb7" stop-opacity="0.5803922"/>
                <stop offset="0.5294118" stop-color="#9d0fb7" stop-opacity="0.5294118"/>
                <stop offset="0.5882353" stop-color="#9f11ba" stop-opacity="0.47843137"/>
                <stop offset="0.64705884" stop-color="#a315bd" stop-opacity="0.42352942"/>
                <stop offset="0.7058824" stop-color="#a618bf" stop-opacity="0.37254903"/>
                <stop offset="0.7647059" stop-color="#a81fc4" stop-opacity="0.32156864"/>
                <stop offset="0.8235294" stop-color="#b025cb" stop-opacity="0.26666668"/>
                <stop offset="0.88235295" stop-color="#b933d5" stop-opacity="0.21568628"/>
                <stop offset="0.9411765" stop-color="#c843e1" stop-opacity="0.16470589"/>
                <stop offset="1.0" stop-color="#e669fc" stop-opacity="0.11372549"/>
            </linearGradient>
        </defs>
        <path fill="url(#p.1)" d="m0 12.798156l0 0c0 -7.068226 5.72993 -12.798156 12.798156 -12.798156l51.19109 0l0 0c3.3942833 0 6.64954 1.3483733 9.049664 3.7484932c2.400116 2.4001198 3.7484894 5.655381 3.7484894 9.049663l0 51.19109c0 7.068226 -5.729927 12.798153 -12.798153 12.798153l-51.19109 0c-7.068226 0 -12.798156 -5.729927 -12.798156 -12.798153z" fill-rule="evenodd"/>
        <path fill="#f3f3f3" d="m27.774963 59.9937l0 -48.59375l12.0625 0q4.375 0 6.984375 1.59375q2.609375 1.578125 3.8125 4.578124q1.203125 3.0 1.203125 7.265625q0 3.84375 -1.359375 6.65625q-1.34375 2.8125 -3.984375 4.34375q-2.640625 1.53125 -6.59375 1.53125l-5.34375 0l0 22.625l-6.78125 0zm6.78125 -27.484375l3.125 0q2.9375 0 4.609375 -0.65625q1.6875 -0.65625 2.40625 -2.296875q0.71875 -1.65625 0.71875 -4.65625q0 -3.484375 -0.515625 -5.34375q-0.5 -1.859375 -2.125 -2.578125q-1.625 -0.71875 -5.046875 -0.71875l-3.171875 0l0 16.25z" fill-rule="nonzero"/>
    </g>
</svg>