<svg width="100" version="1.1" viewBox="0.0 0.0 336.0 115.1994750656168" fill="none" stroke="none" stroke-linecap="square" stroke-miterlimit="10" 
    xmlns:xlink="http://www.w3.org/1999/xlink" 
    xmlns="http://www.w3.org/2000/svg">
    <g>
        <path fill="#000000" fill-opacity="0.0" d="m0 -0.005249344l336.0 0l0 115.2126l-336.0 0z" fill-rule="evenodd"/>
        <path fill="#9504af" d="m16.898926 88.967354l0 -72.359375l17.953125 0q6.53125 0 10.40625 2.375q3.890625 2.359375 5.671875 6.828125q1.796875 4.46875 1.796875 10.8125q0 5.71875 -2.015625 9.921875q-2.015625 4.1875 -5.953125 6.46875q-3.921875 2.28125 -9.8125 2.28125l-7.953125 0l0 33.671875l-10.09375 0zm10.09375 -40.90625l4.640625 0q4.390625 0 6.890625 -0.984375q2.5 -0.984375 3.5625 -3.4375q1.078125 -2.46875 1.078125 -6.921875q0 -5.1875 -0.765625 -7.953125q-0.75 -2.765625 -3.171875 -3.84375q-2.40625 -1.078125 -7.5 -1.078125l-4.734375 0l0 24.21875zm39.393097 41.625q-3.03125 0 -4.734375 -1.609375q-1.6875 -1.609375 -2.359375 -4.015625q-0.671875 -2.421875 -0.671875 -4.921875l0 -41.796875l9.5625 0l0 38.9375q0 2.765625 0.796875 4.34375q0.796875 1.5625 3.3125 1.5625q1.59375 0 3.328125 -0.9375q1.75 -0.953125 3.359375 -2.28125l0 -41.625l9.5625 0l0 51.625l-9.5625 0l0 -5.09375q-2.5 2.40625 -5.671875 4.109375q-3.171875 1.703125 -6.921875 1.703125zm32.16371 -0.71875l0 -51.625l9.5625 0l0 7.3125q2.859375 -4.734375 5.703125 -6.328125q2.859375 -1.609375 5.71875 -1.609375q0.359375 0 0.671875 0q0.3125 0 0.859375 0.078125l0 10.546875q-1.078125 -0.453125 -2.46875 -0.765625q-1.375 -0.3125 -2.8125 -0.3125q-2.234375 0 -4.0625 1.03125q-1.828125 1.03125 -3.609375 3.96875l0 37.703125l-9.5625 0zm28.408676 16.96875l0 -68.59375l9.546875 0l0 4.109375q1.703125 -1.96875 4.109375 -3.390625q2.421875 -1.4375 5.71875 -1.4375q4.03125 0 6.390625 2.109375q2.375 2.09375 3.53125 5.265625q1.15625 3.15625 1.515625 6.421875q0.359375 3.265625 0.359375 5.578125l0 12.515625q0 5.453125 -1.078125 10.328125q-1.0625 4.859375 -3.875 7.859375q-2.8125 2.984375 -7.90625 2.984375q-2.78125 0 -4.921875 -1.375q-2.140625 -1.390625 -3.84375 -3.1875l0 20.8125l-9.546875 0zm16.4375 -23.75q2.5 0 3.5625 -1.828125q1.078125 -1.84375 1.34375 -4.96875q0.265625 -3.125 0.265625 -6.875l0 -12.515625q0 -3.203125 -0.359375 -5.921875q-0.359375 -2.734375 -1.515625 -4.34375q-1.15625 -1.609375 -3.65625 -1.609375q-1.875 0 -3.578125 0.8125q-1.703125 0.796875 -2.953125 1.875l0 33.046875q1.34375 0.984375 3.03125 1.65625q1.703125 0.671875 3.859375 0.671875zm24.293442 6.78125l0 -72.359375l9.5625 0l0 72.359375l-9.5625 0zm37.42488 0.796875q-6.25 0 -10.40625 -2.671875q-4.15625 -2.6875 -6.296875 -7.421875q-2.140625 -4.734375 -2.5 -10.984375l8.9375 -2.40625q0.265625 3.84375 1.203125 7.421875q0.9375 3.5625 3.078125 5.84375q2.140625 2.28125 5.984375 2.28125q3.9375 0 5.9375 -2.1875q2.015625 -2.1875 2.015625 -6.296875q0 -4.921875 -2.234375 -7.90625q-2.234375 -3.0 -5.625 -6.03125l-12.15625 -10.71875q-3.5625 -3.125 -5.265625 -6.828125q-1.703125 -3.71875 -1.703125 -9.171875q0 -7.953125 4.5625 -12.328125q4.5625 -4.375 12.421875 -4.375q4.28125 0 7.53125 1.125q3.265625 1.109375 5.453125 3.4375q2.203125 2.3125 3.484375 5.84375q1.296875 3.53125 1.75 8.265625l-8.578125 2.328125q-0.265625 -3.578125 -1.078125 -6.5625q-0.796875 -3.0 -2.8125 -4.828125q-2.0 -1.828125 -5.75 -1.828125q-3.75 0 -5.859375 2.015625q-2.09375 2.0 -2.09375 5.921875q0 3.3125 1.109375 5.453125q1.125 2.140625 3.625 4.375l12.234375 10.71875q4.109375 3.578125 7.234375 8.546875q3.125 4.953125 3.125 11.734375q0 5.359375 -2.234375 9.25q-2.234375 3.875 -6.125 5.9375q-3.875 2.046875 -8.96875 2.046875zm24.658417 -0.796875l0 -72.359375l9.5625 0l0 26.09375q2.578125 -2.5 5.796875 -4.28125q3.21875 -1.796875 7.15625 -1.796875q3.03125 0 4.671875 1.609375q1.65625 1.609375 2.328125 4.015625q0.671875 2.40625 0.671875 4.90625l0 41.8125l-9.5625 0l0 -39.03125q0 -2.78125 -0.796875 -4.296875q-0.796875 -1.515625 -3.296875 -1.515625q-1.703125 0 -3.546875 0.984375q-1.828125 0.984375 -3.421875 2.40625l0 41.453125l-9.5625 0zm40.11035 0l0 -51.625l9.546875 0l0 51.625l-9.546875 0zm0 -59.3125l0 -10.0l9.546875 0l0 10.0l-9.546875 0zm19.831116 76.28125l0 -68.59375l9.546875 0l0 4.109375q1.703125 -1.96875 4.109375 -3.390625q2.421875 -1.4375 5.71875 -1.4375q4.03125 0 6.390625 2.109375q2.375 2.09375 3.53125 5.265625q1.15625 3.15625 1.515625 6.421875q0.359375 3.265625 0.359375 5.578125l0 12.515625q0 5.453125 -1.078125 10.328125q-1.0625 4.859375 -3.875 7.859375q-2.8125 2.984375 -7.90625 2.984375q-2.78125 0 -4.921875 -1.375q-2.140625 -1.390625 -3.84375 -3.1875l0 20.8125l-9.546875 0zm16.4375 -23.75q2.5 0 3.5625 -1.828125q1.078125 -1.84375 1.34375 -4.96875q0.265625 -3.125 0.265625 -6.875l0 -12.515625q0 -3.203125 -0.359375 -5.921875q-0.359375 -2.734375 -1.515625 -4.34375q-1.15625 -1.609375 -3.65625 -1.609375q-1.875 0 -3.578125 0.8125q-1.703125 0.796875 -2.953125 1.875l0 33.046875q1.34375 0.984375 3.03125 1.65625q1.703125 0.671875 3.859375 0.671875z" fill-rule="nonzero"/>
    </g>
</svg>